<svg id="Icon_Set" enable-background="new 0 0 64 64" height="512" viewBox="0 0 64 64" width="512" xmlns="http://www.w3.org/2000/svg"><path d="m23.5 41 4-8v-15.675c-1.138-.201-2.304-.325-3.5-.325-11.046 0-20 8.954-20 20s8.954 20 20 20c1.092 0 2.155-.111 3.199-.279z" fill="#db8e11"/><path d="m24 57.5c-11.304 0-20.5-9.196-20.5-20.5s9.196-20.5 20.5-20.5c1.146 0 2.319.109 3.587.333.239.042.413.25.413.492v15.675c0 .078-.019.154-.053.224l-3.919 7.838 3.657 15.544c.032.135.007.278-.071.393-.077.115-.198.193-.336.215-1.194.193-2.266.286-3.278.286zm0-40c-10.752 0-19.5 8.748-19.5 19.5s8.748 19.5 19.5 19.5c.807 0 1.658-.063 2.588-.193l-3.574-15.192c-.028-.115-.014-.234.039-.339l3.947-7.894v-15.133c-1.053-.167-2.038-.249-3-.249z" fill="#212a41"/><path d="m30.5 18.101v14.899l-4 8 3.545 15.065c8.09-2.563 13.955-10.127 13.955-19.065 0-8.767-5.65-16.198-13.5-18.899z" fill="#db8e11"/><path d="m30.045 56.565c-.086 0-.171-.022-.247-.065-.121-.068-.208-.185-.239-.32l-3.545-15.065c-.028-.115-.014-.234.039-.339l3.947-7.894v-14.78c0-.162.078-.313.21-.407s.299-.12.453-.065c8.276 2.846 13.837 10.63 13.837 19.37 0 8.978-5.748 16.832-14.304 19.542-.05.016-.1.023-.151.023zm-3.017-15.503 3.378 14.357c7.855-2.725 13.094-10.059 13.094-18.419 0-8.078-4.994-15.297-12.5-18.185v14.185c0 .078-.019.154-.053.224zm3.472-8.062h.01z" fill="#212a41"/><path d="m23.5 41 4-8v-15.975c-10.812.268-19.5 9.098-19.5 19.975 0 10.794 8.558 19.568 19.256 19.962z" fill="#f9ac2f"/><path d="m27.256 57.462c-.006 0-.013 0-.019 0-11.067-.408-19.737-9.396-19.737-20.462 0-11.204 8.779-20.197 19.987-20.475.172.002.266.048.362.142s.15.223.15.358v15.975c0 .078-.019.154-.053.224l-3.919 7.838 3.714 15.786c.036.152-.001.312-.101.432-.093.116-.235.182-.384.182zm-.256-39.918c-10.415.52-18.5 8.971-18.5 19.456 0 10.305 7.905 18.716 18.116 19.428l-3.603-15.313c-.027-.115-.013-.234.04-.339l3.947-7.894z" fill="#212a41"/><path d="m30.5 17.173v15.827l-4 8 3.734 15.868c9.993-1.112 17.766-9.578 17.766-19.868 0-10.197-7.637-18.595-17.5-19.827z" fill="#f9ac2f"/><path d="m30.233 57.368c-.229 0-.433-.158-.486-.385l-3.733-15.868c-.028-.115-.014-.234.039-.339l3.947-7.894v-15.709c0-.144.062-.28.169-.375s.253-.137.393-.121c10.226 1.278 17.938 10.014 17.938 20.323 0 10.455-7.829 19.209-18.211 20.365-.018.002-.038.003-.056.003zm-3.205-16.306 3.589 15.256c9.656-1.294 16.883-9.522 16.883-19.318 0-9.615-7.054-17.793-16.5-19.252v15.252c0 .078-.019.154-.053.224zm3.472-8.062h.01z" fill="#212a41"/><path d="m23.5 41 4-8v-11.975c-8.603.267-15.5 7.307-15.5 15.975 0 8.263 6.264 15.06 14.302 15.908z" fill="#f9ac2f"/><path d="m26.302 53.408c-.018 0-.035-.001-.053-.003-8.408-.887-14.749-7.94-14.749-16.405 0-8.96 7.021-16.197 15.984-16.475.136.003.267.047.363.141.098.095.153.224.153.359v11.975c0 .078-.019.154-.053.224l-3.919 7.838 2.76 11.731c.037.158-.004.324-.111.445-.096.109-.233.17-.375.17zm.698-31.859c-8.172.516-14.5 7.207-14.5 15.451 0 7.714 5.604 14.179 13.149 15.32l-2.636-11.206c-.027-.114-.013-.233.04-.338l3.947-7.894z" fill="#212a41"/><path d="m14 37.5c-.276 0-.5-.224-.5-.5 0-7.035 5.01-13.03 11.913-14.255.268-.051.531.132.579.405.049.272-.133.531-.405.58-6.424 1.14-11.087 6.721-11.087 13.27 0 .276-.224.5-.5.5z" fill="#ffca4d"/><path d="m30.5 21.214v11.786l-4 8 2.808 11.934c8.223-.667 14.692-7.539 14.692-15.934 0-7.984-5.854-14.583-13.5-15.786z" fill="#f9ac2f"/><path d="m29.308 53.434c-.23 0-.434-.158-.486-.385l-2.808-11.934c-.028-.115-.014-.234.039-.339l3.947-7.894v-11.668c0-.146.064-.285.175-.38s.254-.139.403-.114c8.067 1.27 13.922 8.116 13.922 16.28 0 8.525-6.655 15.743-15.152 16.433-.014.001-.028.001-.04.001zm-2.28-12.372 2.666 11.333c7.776-.851 13.806-7.531 13.806-15.395 0-7.472-5.222-13.77-12.5-15.19v11.19c0 .078-.019.154-.053.224zm3.472-8.062h.01z" fill="#212a41"/><path d="m30.835 51.198c-.231 0-.439-.162-.488-.398-.057-.271.117-.535.388-.591 6.238-1.296 10.765-6.851 10.765-13.209 0-.276.224-.5.5-.5s.5.224.5.5c0 6.83-4.862 12.796-11.563 14.188-.034.006-.068.01-.102.01zm-.325-17.698c-.276 0-.505-.224-.505-.5s.219-.5.495-.5h.01c.276 0 .5.224.5.5s-.224.5-.5.5z" fill="#db8e11"/><path d="m23.5 41h-.5c-.552 0-1 .448-1 1v1c0 .552.448 1 1 1h1.206z" fill="#e0e0e0"/><path d="m24.206 44.5h-1.206c-.827 0-1.5-.673-1.5-1.5v-1c0-.827.673-1.5 1.5-1.5h.5c.232 0 .434.16.486.385l.706 3c.035.149 0 .306-.095.425s-.239.19-.391.19zm-1.206-3c-.275 0-.5.224-.5.5v1c0 .276.225.5.5.5h.575l-.471-2z" fill="#212a41"/><path d="m24.787 38.426 1.463-2.926h-.75c-.276 0-.5-.224-.5-.5v-1.5c0-.276.224-.5.5-.5h2v-6c-.552 0-1 .448-1 1v2h-1c-1.933 0-3.5 1.567-3.5 3.5v1.5c0 1.688 1.196 3.097 2.787 3.426z" fill="#e0e0e0"/><path d="m24.787 38.926c-.033 0-.067-.003-.102-.01-1.845-.382-3.185-2.029-3.185-3.916v-1.5c0-2.206 1.794-4 4-4h.5v-1.5c0-.827.673-1.5 1.5-1.5.276 0 .5.224.5.5v6c0 .276-.224.5-.5.5h-2v1.5h.75c.173 0 .334.09.426.237.091.147.099.331.021.486l-1.463 2.926c-.086.173-.26.277-.447.277zm.713-8.426c-1.654 0-3 1.346-3 3v1.5c0 1.288.831 2.426 2.023 2.836l.918-1.838c-.524-.03-.941-.466-.941-.998v-1.5c0-.551.448-1 1-1h1.5v-2.5c0 .276-.224.5-.5.5z" fill="#212a41"/><path d="m30.5 35.5h-1.25l-1.5 3h2.75c.276 0 .5.224.5.5v1.5c0 .276-.224.5-.5.5h-4l1.412 6h.588c.552 0 1-.448 1-1v-2h1c1.933 0 3.5-1.567 3.5-3.5v-1.5c0-1.933-1.567-3.5-3.5-3.5z" fill="#e0e0e0"/><path d="m28.5 47.5h-.588c-.232 0-.434-.16-.486-.385l-1.412-6c-.035-.149 0-.306.095-.425s.239-.19.391-.19h4v-1.5h-2.75c-.173 0-.334-.09-.426-.237-.091-.147-.099-.332-.021-.486l1.5-3c.085-.17.258-.277.447-.277h1.25c2.206 0 4 1.794 4 4v1.5c0 2.206-1.794 4-4 4h-.5v1.5c0 .827-.673 1.5-1.5 1.5zm-.192-1h.192c.275 0 .5-.224.5-.5v-2c0-.276.224-.5.5-.5h1c1.654 0 3-1.346 3-3v-1.5c0-1.654-1.346-3-3-3h-.941l-1 2h1.941c.552 0 1 .449 1 1v1.5c0 .551-.448 1-1 1h-3.369z" fill="#212a41"/><path d="m33 30h-2.5v3h2.5c.552 0 1-.448 1-1v-1c0-.552-.448-1-1-1z" fill="#e0e0e0"/><path d="m33 33.5h-2.5c-.276 0-.5-.224-.5-.5v-3c0-.276.224-.5.5-.5h2.5c.827 0 1.5.673 1.5 1.5v1c0 .827-.673 1.5-1.5 1.5zm-2-1h2c.275 0 .5-.224.5-.5v-1c0-.276-.225-.5-.5-.5h-2z" fill="#212a41"/><circle cx="47" cy="17" fill="#b51040" r="10"/><path d="m47 27.5c-5.79 0-10.5-4.71-10.5-10.5s4.71-10.5 10.5-10.5 10.5 4.71 10.5 10.5-4.71 10.5-10.5 10.5zm0-20c-5.238 0-9.5 4.262-9.5 9.5s4.262 9.5 9.5 9.5 9.5-4.262 9.5-9.5-4.262-9.5-9.5-9.5z" fill="#212a41"/><circle cx="50" cy="17" fill="#d32e5e" r="10"/><path d="m50 27.5c-5.79 0-10.5-4.71-10.5-10.5s4.71-10.5 10.5-10.5 10.5 4.71 10.5 10.5-4.71 10.5-10.5 10.5zm0-20c-5.238 0-9.5 4.262-9.5 9.5s4.262 9.5 9.5 9.5 9.5-4.262 9.5-9.5-4.262-9.5-9.5-9.5z" fill="#212a41"/><path d="m50 25.5c-.276 0-.5-.224-.5-.5s.224-.5.5-.5c4.136 0 7.5-3.364 7.5-7.5 0-.276.224-.5.5-.5s.5.224.5.5c0 4.687-3.813 8.5-8.5 8.5z" fill="#b51040"/><path d="m42 17.5c-.276 0-.5-.224-.5-.5 0-4.687 3.813-8.5 8.5-8.5.276 0 .5.224.5.5s-.224.5-.5.5c-4.136 0-7.5 3.364-7.5 7.5 0 .276-.224.5-.5.5z" fill="#f14c7c"/><path d="m48.5 10.5h3v8h-3z" fill="#e0e0e0"/><path d="m51.5 19h-3c-.276 0-.5-.224-.5-.5v-8c0-.276.224-.5.5-.5h3c.276 0 .5.224.5.5v8c0 .276-.224.5-.5.5zm-2.5-1h2v-7h-2z" fill="#212a41"/><circle cx="50" cy="22" fill="#e0e0e0" r="1.5"/><path d="m50 24c-1.103 0-2-.897-2-2s.897-2 2-2 2 .897 2 2-.897 2-2 2zm0-3c-.552 0-1 .449-1 1s.448 1 1 1 1-.449 1-1-.448-1-1-1z" fill="#212a41"/></svg>