<svg height="512pt" viewBox="0 0 512 512" width="512pt" xmlns="http://www.w3.org/2000/svg"><path d="m512 256c0 29.457031-4.976562 57.75-14.128906 84.09375-34.792969 100.078125-129.941406 171.90625-241.871094 171.90625-44.273438 0-85.902344-11.234375-122.222656-31.003906-22.191406-12.078125-42.390625-27.34375-59.996094-45.191406-14.910156-15.097657-27.953125-32.046876-38.746094-50.46875-10.363281-17.65625-18.671875-36.675782-24.585937-56.707032-3.75-12.695312-6.542969-25.796875-8.285157-39.234375-1.347656-10.34375-2.0820308-20.886719-2.1523432-31.585937-.0117188-.609375-.0117188-1.203125-.0117188-1.808594 0-141.386719 114.613281-256 256-256 114.351562 0 211.203125 74.980469 244.046875 178.46875 7.761719 24.460938 11.953125 50.507812 11.953125 77.53125zm0 0" fill="#77d9a5"/><g fill="#36b990"><path d="m393.097656 184.382812c-27.371094-.910156-49.722656-15.050781-49.722656-29.648437 0-7.753906 6.84375-19.15625 15.511719-19.15625 9.578125 0 17.332031 13.453125 34.210937 16.417969v-36.945313c-20.984375-7.984375-45.617187-17.789062-45.617187-46.984375 0-28.964844 21.441406-42.878906 45.617187-46.300781v-6.386719c0-3.191406 3.648438-6.15625 8.667969-6.15625 4.332031 0 8.664063 2.964844 8.664063 6.15625v5.703125c14.140624.457031 40.828124 4.105469 40.828124 19.84375 0 6.15625-4.105468 18.699219-14.140624 18.699219-7.527344 0-11.859376-7.296875-26.6875-8.4375v33.296875c20.757812 7.757813 44.933593 18.476563 44.933593 49.265625 0 28.28125-18.246093 45.386719-44.933593 49.722656v6.613282c0 3.191406-4.332032 6.15625-8.664063 6.15625-5.019531 0-8.667969-2.964844-8.667969-6.15625zm2.28125-105.371093v-27.140625c-10.265625 2.054687-14.597656 7.300781-14.597656 12.773437 0 6.613281 5.929688 10.71875 14.597656 14.367188zm12.773438 42.195312v30.5625c7.753906-1.824219 13.910156-6.160156 13.910156-14.367187 0-7.527344-5.699219-12.320313-13.910156-16.195313zm0 0"/><path d="m365.988281 437.4375c-27.371093-.910156-49.71875-15.050781-49.71875-29.648438 0-7.753906 6.839844-19.15625 15.507813-19.15625 9.578125 0 17.332031 13.453126 34.210937 16.421876v-36.949219c-20.984375-7.984375-45.617187-17.789063-45.617187-46.984375 0-28.964844 21.441406-42.878906 45.617187-46.300782v-6.386718c0-3.191406 3.648438-6.15625 8.667969-6.15625 4.332031 0 8.664062 2.964844 8.664062 6.15625v5.703125c14.140626.457031 40.828126 4.105469 40.828126 19.84375 0 6.15625-4.105469 18.699219-14.140626 18.699219-7.527343 0-11.859374-7.296876-26.6875-8.4375v33.300781c20.757813 7.753906 44.933594 18.472656 44.933594 49.261719 0 28.28125-18.246094 45.386718-44.933594 49.722656v6.613281c0 3.191406-4.332031 6.160156-8.664062 6.160156-5.019531 0-8.667969-2.96875-8.667969-6.160156zm2.28125-105.371094v-27.140625c-10.261719 2.054688-14.597656 7.300781-14.597656 12.773438 0 6.613281 5.929687 10.71875 14.597656 14.367187zm12.773438 42.195313v30.5625c7.753906-1.824219 13.910156-6.160157 13.910156-14.367188 0-7.527343-5.703125-12.316406-13.910156-16.195312zm0 0"/><path d="m500.046875 178.46875c-22.675781 4.242188-42.039063 18.179688-42.039063 45.703125 0 29.195313 24.640626 38.996094 45.621094 46.980469v36.945312c-16.875-2.96875-24.628906-16.414062-34.210937-16.414062-8.671875 0-15.503907 11.398437-15.503907 19.152344 0 13.5625 19.277344 26.71875 43.957032 29.257812 9.152344-26.34375 14.128906-54.636719 14.128906-84.09375 0-27.023438-4.191406-53.070312-11.953125-77.53125zm-8.738281 42.277344c0-5.476563 4.335937-10.722656 14.597656-12.769532v27.136719c-8.660156-3.648437-14.597656-7.753906-14.597656-14.367187zm0 0"/><path d="m70.058594 246.894531c-27.371094-.910156-49.71875-15.050781-49.71875-29.648437 0-7.753906 6.839844-19.15625 15.507812-19.15625 9.578125 0 17.332032 13.453125 34.210938 16.421875v-36.949219c-20.980469-7.984375-45.617188-17.789062-45.617188-46.984375 0-28.964844 21.441406-42.878906 45.617188-46.300781v-6.386719c0-3.191406 3.648437-6.15625 8.667968-6.15625 4.332032 0 8.667969 2.964844 8.667969 6.15625v5.703125c14.140625.457031 40.824219 4.105469 40.824219 19.84375 0 6.15625-4.105469 18.699219-14.140625 18.699219-7.527344 0-11.859375-7.296875-26.683594-8.4375v33.296875c20.753907 7.757812 44.929688 18.476562 44.929688 49.265625 0 28.28125-18.246094 45.386719-44.929688 49.722656v6.613281c0 3.191406-4.335937 6.160156-8.667969 6.160156-5.015624 0-8.667968-2.96875-8.667968-6.160156zm2.28125-105.371093v-27.140626c-10.261719 2.054688-14.597656 7.300782-14.597656 12.773438 0 6.613281 5.929687 10.71875 14.597656 14.367188zm12.773437 42.195312v30.5625c7.753907-1.824219 13.910157-6.160156 13.910157-14.367188 0-7.527343-5.699219-12.316406-13.910157-16.195312zm0 0"/><path d="m132.160156 382.296875v-33.300781c14.824219 1.136718 19.152344 8.441406 26.683594 8.441406 10.03125 0 14.140625-12.546875 14.140625-18.703125 0-15.734375-26.6875-19.394531-40.824219-19.84375v-5.703125c0-3.1875-4.339844-6.15625-8.664062-6.15625-5.027344 0-8.671875 2.96875-8.671875 6.15625v6.382812c-24.179688 3.429688-45.621094 17.335938-45.621094 46.300782 0 29.195312 24.640625 39.003906 45.621094 46.988281v36.949219c-16.875-2.96875-24.628907-16.425782-34.210938-16.425782-2.464843 0-4.785156.917969-6.832031 2.421876 17.605469 17.847656 37.804688 33.113281 59.996094 45.191406 25.800781-4.753906 43.3125-21.734375 43.3125-49.433594 0-30.792969-24.179688-41.511719-44.929688-49.265625zm-15.058594-5.476563c-8.664062-3.644531-14.597656-7.753906-14.597656-14.367187 0-5.476563 4.335938-10.71875 14.597656-12.769531zm12.777344 72.757813v-30.5625c8.203125 3.875 13.910156 8.671875 13.910156 16.195313 0 8.210937-6.15625 12.539062-13.910156 14.367187zm0 0"/><path d="m10.449219 328.628906c5.914062 20.03125 14.222656 39.050782 24.585937 56.707032 1.335938-4.691407 2.046875-9.820313 2.046875-15.390626 0-21.839843-12.160156-33.582031-26.632812-41.316406zm22.527343-51.511718c0-13.132813-18.597656-17.859376-32.9648432-19.308594.0703124 10.699218.8046872 21.242187 2.1523432 31.585937 7.398438 2.550781 11.179688 6.425781 16.675782 6.425781 10.03125 0 14.136718-12.550781 14.136718-18.703124zm0 0"/></g><path d="m382.113281 449.578125v29.246094c-25.546875 14.503906-53.84375 24.722656-83.902343 29.707031-6.449219 1.066406-12.96875 1.902344-19.5625 2.476562-4.105469.367188-8.242188.625-12.414063.785157-3.394531.144531-6.8125.207031-10.238281.207031-7.648438 0-15.203125-.335938-22.675782-.992188-18.953124-1.660156-37.3125-5.390624-54.855468-10.960937-17.03125-5.402344-33.300782-12.550781-48.589844-21.222656v-29.246094c0-44.011719 29.886719-81.042969 70.480469-91.898437 1.484375-.398438 2.976562-.761719 4.492187-1.085938 4.035156-.878906 8.171875-1.484375 12.382813-1.828125 2.570312-.210937 5.160156-.316406 7.785156-.316406h61.949219c6.929687 0 13.679687.734375 20.179687 2.144531.375.070312.75.15625 1.117188.238281 1.097656.25 2.195312.523438 3.269531.816407.03125.011718.050781.011718.082031.019531 10.710938 2.863281 20.679688 7.554687 29.542969 13.710937 24.75 17.175782 40.957031 45.796875 40.957031 78.199219zm0 0" fill="#3f4b4f"/><path d="m311.84375 356.59375-.230469 1.074219-32.964843 153.339843c-7.460938.65625-15.027344.992188-22.652344.992188-7.648438 0-15.203125-.335938-22.675782-.992188l-32.964843-153.328124-.230469-1.085938zm0 0" fill="#f2efea"/><path d="m255.984375 393.394531-42.828125 23.804688-13.03125-60.601563 26.613281-15.675781" fill="#d8d4ce"/><path d="m255.984375 393.394531 42.828125 23.804688 13.03125-60.601563-26.613281-15.675781" fill="#d8d4ce"/><path d="m341.15625 371.378906-27.691406 66.996094h13.582031l-28.835937 70.15625c-6.449219 1.066406-12.96875 1.902344-19.5625 2.476562-4.105469.367188-8.242188.625-12.414063.785157l45.296875-154.144531.3125-1.054688zm0 0" fill="#2c363b"/><path d="m170.5 371.378906 27.691406 66.996094h-13.582031l28.835937 70.15625c6.449219 1.066406 12.96875 1.902344 19.5625 2.476562 4.105469.367188 8.242188.625 12.414063.785157l-45.296875-154.144531-.3125-1.054688zm0 0" fill="#2c363b"/><path d="m265.390625 425.554688c0 5.195312-4.210937 9.402343-9.40625 9.402343-5.191406 0-9.402344-4.207031-9.402344-9.402343 0-5.195313 4.210938-9.402344 9.402344-9.402344 5.195313 0 9.40625 4.207031 9.40625 9.402344zm0 0" fill="#151a1c"/><path d="m265.390625 476.921875c0 5.195313-4.210937 9.402344-9.40625 9.402344-5.191406 0-9.402344-4.207031-9.402344-9.402344s4.210938-9.402344 9.402344-9.402344c5.195313 0 9.40625 4.207031 9.40625 9.402344zm0 0" fill="#151a1c"/><path d="m289.9375 317.800781v41.65625c0 15.25-10.054688 28.140625-23.90625 32.421875-3.171875.980469-6.550781 1.515625-10.042969 1.515625-18.746093 0-33.9375-15.195312-33.9375-33.9375v-41.65625zm0 0" fill="#eaa27f"/><path d="m289.9375 356.816406v2.640625c0 15.25-10.054688 28.140625-23.90625 32.421875-12.496094-3.84375-21.890625-14.707031-23.625-28.003906 2.265625.140625 4.546875.210938 6.835938.210938 6.421874 0 12.714843-.511719 18.847656-1.515626 7.558594-1.214843 14.859375-3.160156 21.847656-5.753906zm0 0" fill="#f6ba97"/><path d="m162.882812 249.535156c0 15.710938-11.476562 28.742188-26.507812 31.160156-1.640625.265626-3.332031.402344-5.054688.402344-17.4375 0-31.566406-14.125-31.566406-31.5625s14.128906-31.566406 31.566406-31.566406c1.722657 0 3.414063.136719 5.054688.40625 15.03125 2.417969 26.507812 15.445312 26.507812 31.160156zm0 0" fill="#f6ba97"/><path d="m162.882812 249.535156c0 15.710938-11.476562 28.742188-26.507812 31.160156-2.730469-9.929687-4.1875-20.378906-4.1875-31.160156 0-10.785156 1.457031-21.234375 4.1875-31.160156 15.03125 2.417969 26.507812 15.445312 26.507812 31.160156zm0 0" fill="#eaa27f"/><path d="m142.601562 249.535156c0 6.230469-5.050781 11.28125-11.28125 11.28125-6.230468 0-11.28125-5.050781-11.28125-11.28125 0-6.230468 5.050782-11.285156 11.28125-11.285156 6.230469 0 11.28125 5.054688 11.28125 11.285156zm0 0" fill="#eaa27f"/><path d="m349.101562 249.535156c0 15.710938 11.476563 28.742188 26.507813 31.160156 1.644531.265626 3.332031.402344 5.054687.402344 17.4375 0 31.566407-14.125 31.566407-31.5625s-14.128907-31.566406-31.566407-31.566406c-1.722656 0-3.410156.136719-5.054687.40625-15.03125 2.417969-26.507813 15.445312-26.507813 31.160156zm0 0" fill="#f6ba97"/><path d="m349.101562 249.535156c0 15.710938 11.476563 28.742188 26.507813 31.160156 2.730469-9.929687 4.1875-20.378906 4.1875-31.160156 0-10.785156-1.457031-21.234375-4.1875-31.160156-15.03125 2.417969-26.507813 15.445312-26.507813 31.160156zm0 0" fill="#eaa27f"/><path d="m373.433594 188.039062v44.722657c0 58.441406-42.691406 106.921875-98.59375 115.921875-.1875.03125-.386719.0625-.574219.09375-5.945313.949218-12.050781 1.417968-18.277344 1.417968-64.855469 0-117.433593-52.578124-117.433593-117.433593v-44.722657c0-13.65625 2.328124-26.78125 6.632812-38.972656 16.0625-45.707031 59.613281-78.472656 110.800781-78.472656h.011719c6.214844 0 12.328125.480469 18.285156 1.421875 56.171875 8.777344 99.148438 57.382813 99.148438 116.023437zm0 0" fill="#eaa27f"/><path d="m391.949219 249.535156c0 6.230469-5.050781 11.28125-11.285157 11.28125-6.230468 0-11.28125-5.050781-11.28125-11.28125 0-6.230468 5.050782-11.285156 11.28125-11.285156 6.234376 0 11.285157 5.054688 11.285157 11.285156zm0 0" fill="#eaa27f"/><path d="m373.433594 188.039062v44.722657c0 58.441406-42.691406 106.921875-98.59375 115.921875-.1875.03125-.386719.0625-.574219.09375-56.175781-8.777344-99.140625-57.386719-99.140625-116.015625v-44.722657c0-58.640624 42.976562-107.246093 99.160156-116.023437 35.296875 5.515625 65.390625 26.757813 82.871094 56.339844 10.34375 17.492187 16.277344 37.898437 16.277344 59.683593zm0 0" fill="#f6ba97"/><path d="m337.242188 228.578125c0 17.484375-14.171876 31.660156-31.660157 31.660156-17.484375 0-31.65625-14.175781-31.65625-31.660156s14.171875-31.660156 31.65625-31.660156c17.488281 0 31.660157 14.175781 31.660157 31.660156zm0 0" fill="#c4e9f7"/><path d="m373.433594 188.039062v28.515626c-16.707032-.523438-30.132813-21.828126-30.132813-48.042969 0-16.78125 5.507813-31.566407 13.855469-40.15625 10.34375 17.492187 16.277344 37.898437 16.277344 59.683593zm0 0" fill="#c5cae2"/><path d="m138.554688 188.039062v28.515626c16.707031-.523438 30.132812-21.828126 30.132812-48.042969 0-16.78125-5.507812-31.566407-13.855469-40.15625-10.34375 17.492187-16.277343 37.898437-16.277343 59.683593zm0 0" fill="#c5cae2"/><path d="m230.984375 225.921875c0 7.355469-5.964844 13.320313-13.324219 13.320313s-13.324218-5.964844-13.324218-13.320313c0-7.359375 5.964843-13.324219 13.324218-13.324219s13.324219 5.964844 13.324219 13.324219zm0 0" fill="#2c363b"/><path d="m307.648438 225.921875c0 7.355469-5.964844 13.320313-13.320313 13.320313-7.359375 0-13.324219-5.964844-13.324219-13.320313 0-7.359375 5.964844-13.324219 13.324219-13.324219 7.355469 0 13.320313 5.964844 13.320313 13.324219zm0 0" fill="#2c363b"/><path d="m228.265625 223.570312c0 3.152344-2.554687 5.707032-5.707031 5.707032s-5.710938-2.554688-5.710938-5.707032c0-3.152343 2.558594-5.707031 5.710938-5.707031s5.707031 2.554688 5.707031 5.707031zm0 0" fill="#fff"/><path d="m305.589844 223.570312c0 3.152344-2.558594 5.707032-5.710938 5.707032s-5.707031-2.554688-5.707031-5.707032c0-3.152343 2.554687-5.707031 5.707031-5.707031s5.710938 2.554688 5.710938 5.707031zm0 0" fill="#fff"/><path d="m269.316406 254.238281h-26.644531c-3.175781 0-5.746094-2.570312-5.746094-5.746093 0-3.171876 2.570313-5.746094 5.746094-5.746094h26.644531c3.171875 0 5.746094 2.574218 5.746094 5.746094 0 3.175781-2.574219 5.746093-5.746094 5.746093zm0 0" fill="#eaa27f"/><path d="m255.996094 290.601562c-9.835938 0-19.667969-2.464843-28.632813-7.394531-2.53125-1.386719-3.453125-4.566406-2.0625-7.09375 1.390625-2.527343 4.566407-3.449219 7.09375-2.0625 14.777344 8.125 32.421875 8.125 47.199219 0 2.523438-1.386719 5.703125-.464843 7.09375 2.0625 1.390625 2.527344.464844 5.707031-2.0625 7.09375-8.964844 4.929688-18.796875 7.394531-28.628906 7.394531zm0 0" fill="#eaa27f"/><path d="m156.589844 302.109375h61.351562c21.015625 0 38.054688-17.039063 38.054688-38.058594v-7.433593h-61.351563c-21.015625 0-38.054687 17.039062-38.054687 38.058593zm0 0" fill="#f1f4fe"/><path d="m355.40625 302.109375h-61.351562c-21.019532 0-38.058594-17.039063-38.058594-38.058594v-7.433593h61.351562c21.019532 0 38.058594 17.039062 38.058594 38.058593zm0 0" fill="#f1f4fe"/><path d="m373.96875 117.476562c-1.015625 14.441407-2.65625 28.882813-4.941406 43.324219-1.671875.125-3.34375.25-5.015625.363281-51.359375 3.75-102.714844 4.796876-154.070313 3.125-19.738281-.636718-39.476562-1.683593-59.214844-3.125-1.671874-.113281-3.34375-.238281-5.015624-.363281-2.289063-14.441406-3.941407-28.882812-4.941407-43.324219-2.613281-37.25-.960937-74.488281 4.941407-111.730468 21.410156-1.628906 42.820312-2.800782 64.230468-3.488282 53.027344-1.726562 106.054688-.566406 159.085938 3.488282 5.890625 37.242187 7.542968 74.480468 4.941406 111.730468zm0 0" fill="#2c363b"/><path d="m373.96875 117.476562c-1.015625 14.441407-2.65625 28.882813-4.941406 43.324219-1.671875.125-3.34375.25-5.015625.363281-51.359375 3.75-102.714844 4.796876-154.070313 3.125-2.363281-15.015624-4.066406-30.019531-5.109375-45.035156-2.738281-39.007812-1.023437-78 5.109375-116.996094 53.027344-1.726562 106.054688-.566406 159.085938 3.488282 5.890625 37.242187 7.542968 74.480468 4.941406 111.730468zm0 0" fill="#3f4b4f"/><path d="m373.96875 117.480469c-1.015625 14.4375-2.65625 28.878906-4.941406 43.320312-1.671875.125-3.34375.25-5.015625.363281-71.097657 1.089844-142.191407 1.089844-213.285157 0-1.671874-.113281-3.34375-.238281-5.015624-.363281-2.289063-14.441406-3.941407-28.882812-4.941407-43.320312 77.738281-1.296875 155.457031-1.296875 233.199219 0zm0 0" fill="#f1f4fe"/><path d="m209.5625 161.8125c-19.609375-.136719-39.222656-.34375-58.835938-.648438-1.671874-.113281-3.34375-.238281-5.015624-.363281-2.289063-14.441406-3.941407-28.882812-4.941407-43.324219 21.292969-.355468 42.597657-.617187 63.894531-.773437.050782.847656.105469 1.703125.167969 2.550781.992188 14.191406 2.558594 28.367188 4.730469 42.558594zm0 0" fill="#c5cae2"/><path d="m424.164062 161.175781c0 9.402344-7.625 17.019531-17.019531 17.019531h-302.300781c-4.699219 0-8.953125-1.902343-12.035156-4.984374-3.074219-3.082032-4.984375-7.332032-4.984375-12.035157 0-9.40625 7.628906-17.023437 17.019531-17.023437h302.300781c4.691407 0 8.953125 1.902344 12.035157 4.984375 3.082031 3.082031 4.984374 7.335937 4.984374 12.039062zm0 0" fill="#2c363b"/><path d="m424.164062 161.175781c0 9.402344-7.625 17.019531-17.019531 17.019531h-242.84375c-2.769531-.867187-5.246093-2.390624-7.253906-4.398437-3.226563-3.238281-5.222656-7.691406-5.222656-12.621094 0-7.992187 5.265625-14.753906 12.507812-17.023437h242.8125c4.691407 0 8.953125 1.902344 12.035157 4.984375 3.082031 3.082031 4.984374 7.335937 4.984374 12.039062zm0 0" fill="#3f4b4f"/><path d="m255.996094 392.210938-37.910156-21.890626c-4.796876-2.769531-10.792969.695313-10.792969 6.234376v31.3125c0 5.539062 5.996093 9 10.792969 6.230468zm0 0" fill="#f71070"/><path d="m255.996094 392.210938 37.914062-21.890626c4.796875-2.769531 10.792969.695313 10.792969 6.234376v31.3125c0 5.539062-5.996094 9-10.792969 6.230468zm0 0" fill="#f71070"/><path d="m271.296875 392.582031c0 8.542969-6.925781 15.46875-15.46875 15.46875s-15.46875-6.925781-15.46875-15.46875 6.925781-15.46875 15.46875-15.46875 15.46875 6.925781 15.46875 15.46875zm0 0" fill="#f71070"/><path d="m386.296875 280.585938-.710937 2.265624c-5.109376 14.285157-16.863282 23.074219-30.46875 23.074219-1.023438 0-2.046876-.054687-3.070313-.148437-15.191406-1.460938-34.742187-14.992188-39.863281-48.367188l10.332031-1.589844c4.203125 27.441407 19.070313 38.453126 30.523437 39.550782 9.726563.941406 18.128907-4.679688 22.214844-14.742188.113282.019532.238282.039063.355469.0625 1.640625.269532 3.332031.40625 5.054687.40625 1.925782 0 3.804688-.167968 5.632813-.511718zm0 0" fill="#3f4b4f"/><path d="m305.582031 268.074219c-21.777343 0-39.492187-17.71875-39.492187-39.496094s17.714844-39.496094 39.492187-39.496094c21.78125 0 39.496094 17.71875 39.496094 39.496094s-17.714844 39.496094-39.496094 39.496094zm0-63.316407c-13.132812 0-23.820312 10.683594-23.820312 23.820313s10.6875 23.824219 23.820312 23.824219c13.136719 0 23.824219-10.6875 23.824219-23.824219s-10.6875-23.820313-23.824219-23.820313zm0 0" fill="#40649c"/></svg>